{"title":"DeadHeads.2011.BRRip.XVID.AC3.SeT-CM8","uid":6831899,"size":1519272577,"categoryP":"video","categoryS":"movies","magnet":"?xt=urn:btih:ddc9bca6a428fbf0824b34645d0ad3c8f9772352&amp;dn=DeadHeads.2011.BRRip.XVID.AC3.SeT-CM8&amp;tr=udp%3A%2F%2Ftracker.openbittorrent.com%3A80&amp;tr=udp%3A%2F%2Fopen.demonii.com%3A1337&amp;tr=udp%3A%2F%2Ftracker.coppersurfer.tk%3A6969&amp;tr=udp%3A%2F%2Fexodus.desync.com%3A6969","seeders":0,"leechers":1,"uploader":"TvTeam","files":5,"time":1321898082,"description":". \n &lt;a href=&quot;\nhttp://www.torrenting.com&quot; rel=&quot;nofollow&quot; target=&quot;_NEW&quot;&gt;\nhttp://www.torrenting.com&lt;/a&gt;          :     Once &amp; For all ;)\n\n\n               www . Torrenting . Com \n\n(((((((((((((= Enjoy No RAR releases =))))))))))))))))))))\n\n\n...................................NFO:....................................\n\n\n[color=blue][size=5][b]DeadHeads.2011.BRRip.XVID.AC3.SeT-CM8.avi[/b][/size][/color]\n\n\nSource: Deadheads 2011 720p BluRay x264-RSG\n\nVideo: 720x400 @bitrate 1798 2pass\nAudio: English True HD AC3 640 to AC3 6 Channel @ 320 Kbps\nSample: yes included\nSubs: none[/b]\n\n\n[url]http://www.imdb.com/title/tt1273207/[/url]\n\nTwo inexplicably coherent zombies awake amidst a zombie attack and decide to take a road trip \nto find the one's lost love, unaware they are being chased by the agents of a ruthless company \nwith it's own agenda. \n\n\n\nFormat                           : AVI\nFormat/Info                      : Audio Video Interleave\nFile size                        : 1.41 GiB\nDuration                         : 1h 34mn\nOverall bit rate                 : 2 122 Kbps\n\nVideo\nID                               : 0\nFormat                           : xvid\nCodec ID                         : xvid\nDuration                         : 1h 34mn\nBit rate                         : 1 798 Kbps\nWidth                            : 720 pixels\nHeight                           : 400 pixels\nDisplay aspect ratio             : 16:9\nFrame rate                       : 23.976 fps\nBits/(Pixel*Frame)               : 0.260\nStream size                      : 1.19 GiB (85%)\n\nAudio\nID                               : 1\nFormat                           : AC-3\nFormat/Info                      : Audio Coding 3\nMode extension                   : CM (complete main)\nCodec ID                         : 2000\nDuration                         : 1h 33mn\nBit rate mode                    : Constant\nBit rate                         : 320 Kbps\nChannel(s)                       : 6 channels\nChannel positions                : Front: L C R, Side: L R, LFE\nSampling rate                    : 48.0 KHz\nBit depth                        : 16 bits\nCompression mode                 : Lossy\nStream size                      : 213 MiB (15%)\nAlignment                        : Aligned on interleaves\nInterleave, duration             : 42 ms (1.02 video frame)\n\nGreetz\nEveryone, let my people go, give peace a chance and i have a dream.......\nThats right, some of you fighting a war that dont exist, grow up, put your big boy pants on.\nAll you gossip turds, shut your mouths and know your role and let the groups do there thing.\nAs for the groups, come on... we are all on the same side right . :)\nGreat Work Guys :D\n\nLOOKING FOR ANYTHING YOU WANT TO LOOK AND SOUND BETTER\n\n&lt;a class=&quot;__cf_email__&quot; href=&quot;/cdn-cgi/l/email-protection&quot; data-cfemail=&quot;5e1d13661e362b2d36333f3732703d3133&quot;&gt;[email&amp;#160;protected]&lt;/a&gt;&lt;script cf-hash='f9e31' type=&quot;text/javascript&quot;&gt;\n/* &lt;![CDATA[ */!function(){try{var t=&quot;currentScript&quot;in document?document.currentScript:function(){for(var t=document.getElementsByTagName(&quot;script&quot;),e=t.length;e--;)if(t[e].getAttribute(&quot;cf-hash&quot;))return t[e]}();if(t&amp;&amp;t.previousSibling){var e,r,n,i,c=t.previousSibling,a=c.getAttribute(&quot;data-cfemail&quot;);if(a){for(e=&quot;&quot;,r=parseInt(a.substr(0,2),16),n=2;a.length-n;n+=2)i=parseInt(a.substr(n,2),16)^r,e+=String.fromCharCode(i);e=document.createTextNode(e),c.parentNode.replaceChild(e,c)}}}catch(u){}}();/* ]]&gt; */&lt;/script&gt;","torrent":{"xt":"urn:btih:ddc9bca6a428fbf0824b34645d0ad3c8f9772352","amp;dn":"DeadHeads.2011.BRRip.XVID.AC3.SeT-CM8","amp;tr":["udp%3A%2F%2Ftracker.openbittorrent.com%3A80","udp%3A%2F%2Fopen.demonii.com%3A1337","udp%3A%2F%2Ftracker.coppersurfer.tk%3A6969","udp%3A%2F%2Fexodus.desync.com%3A6969"],"infoHash":"ddc9bca6a428fbf0824b34645d0ad3c8f9772352","infoHashBuffer":{"type":"Buffer","data":[221,201,188,166,164,40,251,240,130,75,52,100,93,10,211,200,249,119,35,82]},"announce":[],"urlList":[]}}